<?xml version="1.0" encoding="utf-8"?><svg xmlns="http://www.w3.org/2000/svg" xmlns:xlink="http://www.w3.org/1999/xlink"><symbol viewBox="0 0 122 74" fill="none" id="arrow-decoration" xmlns="http://www.w3.org/2000/svg">
<line y1="37" x2="122" y2="37" stroke="#212121" stroke-width="2"/>
<path d="M85 74C85 53.5655 101.565 37 122 37" stroke="#212121" stroke-width="2"/>
<path d="M85 2.38419e-07C85 20.4345 101.565 37 122 37" stroke="#212121" stroke-width="2"/>
</symbol><symbol viewBox="0 0 30 30" id="fb" xmlns="http://www.w3.org/2000/svg">
<path fill-rule="evenodd" clip-rule="evenodd" d="M14.9992 0C6.71535 0 0 6.71535 0 14.9992C0 23.283 6.71535 29.9983 14.9992 29.9983C23.283 29.9983 29.9983 23.283 29.9983 14.9992C29.9983 6.71535 23.283 0 14.9992 0ZM16.5628 15.6581V23.8185H13.1864V15.6584H11.4996V12.8463H13.1864V11.158C13.1864 8.86387 14.1389 7.4997 16.845 7.4997H19.0979V10.3121H17.6897C16.6363 10.3121 16.5666 10.7051 16.5666 11.4385L16.5628 12.846H19.1139L18.8154 15.6581H16.5628Z"/>
</symbol><symbol viewBox="0 0 111 69" fill="none" id="heinrich_boll" xmlns="http://www.w3.org/2000/svg">
<g clip-path="url(#cclip0)">
<path d="M42.8339 68.8053H44.2715V61.3065H42.0442L40.7248 66.1489L39.4197 61.3065H37.1924V68.8053H38.6299L38.5779 62.504L40.1715 68.8053H41.2828L42.8764 62.504L42.8339 68.8053ZM46.1914 65.7164C46.1914 66.0063 46.1961 66.2724 46.2055 66.5148C46.215 66.7619 46.2434 66.99 46.2907 67.2038C46.338 67.4177 46.4042 67.6125 46.4893 67.7931C46.5744 67.9737 46.6926 68.1447 46.8534 68.3016C47.3026 68.7673 47.9221 69.0001 48.7118 69.0001C49.5157 69.0001 50.1399 68.7673 50.5892 68.3016C50.7405 68.1447 50.8587 67.9737 50.9486 67.7931C51.0384 67.6125 51.1046 67.4129 51.1519 67.2038C51.1992 66.99 51.2276 66.7619 51.237 66.5148C51.2465 66.2677 51.2512 66.0016 51.2512 65.7164V64.3954C51.2512 64.1102 51.2465 63.8394 51.237 63.597C51.2276 63.3499 51.1992 63.1218 51.1519 62.908C51.1046 62.6941 51.0384 62.4993 50.9486 62.3187C50.8587 62.1381 50.7405 61.9671 50.5892 61.8102C50.1399 61.3445 49.5157 61.1117 48.7118 61.1117C47.9221 61.1117 47.3026 61.3445 46.8534 61.8102C46.6973 61.9671 46.5744 62.1381 46.4893 62.3187C46.4042 62.4993 46.338 62.6989 46.2907 62.908C46.2434 63.1218 46.215 63.3499 46.2055 63.597C46.1961 63.8441 46.1914 64.1102 46.1914 64.3954V65.7164ZM49.5819 65.9968C49.5819 66.2629 49.5725 66.491 49.5583 66.6859C49.5394 66.8759 49.5063 67.0375 49.4448 67.1658C49.3881 67.2941 49.2982 67.3939 49.1847 67.4557C49.0712 67.5175 48.9152 67.546 48.726 67.546C48.5274 67.546 48.3714 67.5127 48.2626 67.4557C48.1491 67.3939 48.064 67.2989 48.0072 67.1658C47.9505 67.0375 47.9127 66.8759 47.8937 66.6859C47.8748 66.4958 47.8701 66.2629 47.8701 65.9968V64.1197C47.8701 63.8536 47.8796 63.6255 47.8937 63.4307C47.9127 63.2406 47.9505 63.079 48.0072 62.946C48.064 62.8177 48.1491 62.7179 48.2626 62.6609C48.3761 62.5991 48.5274 62.5706 48.726 62.5706C48.9152 62.5706 49.0712 62.5991 49.1847 62.6609C49.2982 62.7226 49.3881 62.8177 49.4448 62.946C49.5015 63.0743 49.5394 63.2359 49.5583 63.4307C49.5772 63.6208 49.5819 63.8489 49.5819 64.1197V65.9968ZM53.0955 65.7164C53.0955 66.0063 53.1002 66.2724 53.1096 66.5148C53.1191 66.7619 53.1475 66.99 53.1948 67.2038C53.2421 67.4177 53.3083 67.6125 53.3934 67.7931C53.4785 67.9737 53.6014 68.1447 53.7575 68.3016C54.2067 68.7673 54.8309 69.0001 55.6254 69.0001C56.0084 69.0001 56.3489 68.9431 56.6563 68.829C56.9636 68.715 57.2237 68.5629 57.4413 68.3633C57.6588 68.1638 57.829 67.9262 57.9472 67.6458C58.0655 67.3654 58.1269 67.0613 58.1269 66.7334V66.2297H56.4813V66.3437C56.4813 66.7619 56.4198 67.066 56.2922 67.2561C56.1645 67.4462 55.9422 67.5412 55.6254 67.5412C55.4268 67.5412 55.2755 67.508 55.162 67.4509C55.0485 67.3892 54.9634 67.2941 54.9066 67.1611C54.8499 67.0328 54.812 66.8712 54.7931 66.6764C54.7742 66.4815 54.7695 66.2534 54.7695 65.9921V64.115C54.7695 63.8631 54.7742 63.6398 54.7837 63.445C54.7931 63.2501 54.8262 63.0885 54.8782 62.9555C54.935 62.8272 55.0154 62.7274 55.1336 62.6656C55.2471 62.5991 55.4126 62.5706 55.6254 62.5706C55.9233 62.5706 56.1408 62.6561 56.2685 62.8319C56.3962 63.0078 56.4671 63.2834 56.4813 63.6588H58.1269V63.2073C58.1269 62.927 58.0655 62.6609 57.9472 62.409C57.829 62.1571 57.6588 61.9338 57.4365 61.7437C57.2143 61.5536 56.9495 61.4016 56.6468 61.2875C56.3394 61.1735 55.999 61.1164 55.6254 61.1164C54.8309 61.1164 54.2067 61.3493 53.7575 61.815C53.6014 61.9718 53.4785 62.1429 53.3934 62.3235C53.3083 62.504 53.2421 62.7036 53.1948 62.9127C53.1475 63.1266 53.1191 63.3547 53.1096 63.6018C53.1002 63.8489 53.0955 64.115 53.0955 64.4001V65.7164ZM61.6263 64.1673V61.3065H59.9712V68.8053H61.6263V65.5406H62.3829C62.4775 65.5406 62.5957 65.5549 62.7328 65.5881C62.87 65.6214 62.9976 65.6927 63.1064 65.8115C63.1963 65.9065 63.2625 66.0396 63.3098 66.2107C63.357 66.377 63.3854 66.5433 63.3996 66.7001L63.4611 67.4509C63.4753 67.6505 63.4989 67.8454 63.532 68.0307C63.5651 68.216 63.6502 68.3919 63.7874 68.5582C63.8772 68.6675 63.9765 68.753 64.0853 68.81C64.194 68.8671 64.3075 68.9098 64.421 68.9383C64.5345 68.9669 64.6575 68.9811 64.7804 68.9906C64.9034 69.0001 65.0216 69.0001 65.1398 69.0001H65.5985L65.7735 67.5412H65.5181C65.4046 67.5412 65.3101 67.527 65.2391 67.4985C65.1682 67.47 65.1067 67.4367 65.0594 67.3939C64.9696 67.3131 64.9176 67.2133 64.9034 67.104C64.8845 66.9948 64.875 66.895 64.8655 66.8047L64.823 66.3009C64.8088 66.1299 64.7946 65.954 64.7757 65.7782C64.7568 65.5976 64.6858 65.4218 64.5582 65.2412C64.4683 65.1224 64.3596 65.0226 64.2224 64.9371C64.0853 64.8516 63.9387 64.7898 63.7826 64.7565C63.9056 64.728 64.0238 64.6852 64.1326 64.6235C64.2461 64.5617 64.3359 64.4904 64.4116 64.4096C64.5203 64.2956 64.5865 64.1768 64.6149 64.0627C64.6433 63.9487 64.6622 63.8299 64.6764 63.7158L64.7379 63.1123C64.752 63.0363 64.7615 62.9555 64.7757 62.8747C64.7851 62.7892 64.8372 62.7179 64.9365 62.6561C64.9885 62.6133 65.05 62.5896 65.1162 62.5801C65.1824 62.5706 65.2391 62.5658 65.2959 62.5658H65.4992L65.3763 61.1069H64.9176C64.7 61.1069 64.4778 61.1307 64.2555 61.183C64.0285 61.2352 63.8394 61.354 63.6739 61.5394C63.5462 61.6772 63.4658 61.815 63.4327 61.9576C63.4043 62.1001 63.3807 62.2379 63.3665 62.3852L63.2956 63.1361C63.2814 63.2644 63.2672 63.3927 63.2435 63.521C63.2246 63.6493 63.1773 63.7586 63.1017 63.8536C62.9976 63.9962 62.8842 64.0865 62.7565 64.1197C62.6288 64.153 62.5106 64.172 62.4018 64.172H61.6263V64.1673ZM67.2016 68.8053H69.7362C70.6205 68.8053 71.2778 68.6295 71.7082 68.2826C72.1385 67.9357 72.3513 67.3892 72.3513 66.6478C72.3513 65.7022 71.9493 65.1034 71.1454 64.8468C71.5143 64.6852 71.7791 64.4714 71.9399 64.21C72.1054 63.9534 72.1858 63.616 72.1858 63.2073C72.1858 62.5516 71.9824 62.0716 71.5663 61.7627C71.1549 61.4538 70.5212 61.3018 69.6748 61.3018H67.2016V68.8053ZM68.8567 65.4741H69.5707C70.3037 65.4741 70.6725 65.821 70.6725 66.5148C70.6725 66.8807 70.5827 67.1468 70.403 67.3131C70.2233 67.4795 69.9443 67.565 69.5707 67.565H68.8567V65.4741ZM68.8567 62.4755H69.5093C69.8545 62.4755 70.1098 62.5468 70.2706 62.6894C70.4314 62.8319 70.5118 63.0695 70.5118 63.3974C70.5118 64.0152 70.176 64.3193 69.5093 64.3193H68.8567V62.4755ZM77.955 68.8053H79.558L77.4159 61.3065H75.4676L73.3254 68.8053H74.9285L75.3163 67.3084H77.553L77.955 68.8053ZM75.6331 66.0253L76.4417 62.6419L77.2362 66.0253H75.6331Z" fill="#212121"/>
<path d="M43.1269 6.40107V0.622559H45.0468V14.1042H43.1269V8.32566H39.1027V14.1042H37.1875V0.622559H39.1027V6.40107H43.1269Z" fill="#212121"/>
<path d="M55.805 0.622559V2.54715H50.6269V6.40107H54.6512V8.32566H50.6269V12.1796H55.805V14.1089H48.707V0.622559H55.805Z" fill="#212121"/>
<path d="M60.6144 14.1042H58.6992V0.622559H60.6144V14.1042Z" fill="#212121"/>
<path d="M72.5212 0.622559V14.1089H70.989L66.0049 5.24632V14.1089H64.085V0.622559H65.6218L70.606 9.48516V0.622559H72.5212Z" fill="#212121"/>
<path d="M80.0163 0.622559C82.1301 0.622559 83.8514 2.35706 83.8514 4.47648C83.8514 6.59591 82.2436 7.82669 81.1701 8.13558L84.2391 14.1137H82.0686L79.1935 8.33041H77.9025V14.1137H75.9873V0.622559H80.0163ZM77.9072 2.54715V6.40107H80.0352C81.0897 6.40107 81.9315 5.53144 81.9315 4.47648C81.9315 3.41677 81.0897 2.54715 80.0352 2.54715H77.9072Z" fill="#212121"/>
<path d="M89.049 14.1042H87.1338V0.622559H89.049V14.1042Z" fill="#212121"/>
<path d="M92.3262 4.28166C92.3262 2.16224 94.0711 0.427734 96.1802 0.427734C98.2892 0.427734 100.015 2.16224 100.015 4.28166V5.05149H98.0953V4.28166C98.0953 3.22195 97.2347 2.35232 96.1802 2.35232C95.1256 2.35232 94.2461 3.22195 94.2461 4.28166V10.4498C94.2461 11.5096 95.1256 12.3982 96.1802 12.3982C97.2347 12.3982 98.0953 11.5143 98.0953 10.4498V9.68001H100.015V10.4498C100.015 12.5693 98.2892 14.3038 96.1802 14.3038C94.0711 14.3038 92.3262 12.574 92.3262 10.4498V4.28166Z" fill="#212121"/>
<path d="M108.858 6.40107V0.622559H110.773V14.1042H108.858V8.32566H104.829V14.1042H102.909V0.622559H104.829V6.40107H108.858Z" fill="#212121"/>
<path d="M40.8286 20.8428C42.9376 20.8428 44.6589 22.5773 44.6589 24.6967C44.6589 26.4312 43.7226 27.201 43.628 27.3388C43.7226 27.3959 45.2547 28.3415 45.2547 30.461C45.2547 32.5756 43.5098 34.3291 41.4007 34.3291H37.1826V20.8428H40.8286ZM39.1025 22.7721V26.626H40.8286C41.7838 26.626 42.7437 25.8562 42.7437 24.7015C42.7437 23.5467 41.7838 22.7721 40.8286 22.7721H39.1025ZM39.1025 28.5506V32.4045H41.4007C42.5499 32.4045 43.3396 31.611 43.3396 30.461C43.3396 29.3014 42.5499 28.5506 41.4007 28.5506H39.1025Z" fill="#212121"/>
<path d="M51.3744 20.6523C53.6915 20.6523 55.5925 22.5579 55.5925 24.8959V30.2895C55.5925 32.618 53.6915 34.5283 51.3744 34.5283C49.0573 34.5283 47.1563 32.618 47.1563 30.2895V24.8912C47.1515 22.5579 49.0573 20.6523 51.3744 20.6523ZM49.2653 17.7583C49.9037 17.7583 50.4144 18.281 50.4144 18.9178C50.4144 19.5498 49.899 20.0726 49.2653 20.0726C48.6317 20.0726 48.1162 19.5498 48.1162 18.9178C48.1115 18.281 48.6317 17.7583 49.2653 17.7583ZM51.3744 32.599C52.6417 32.599 53.6773 31.5583 53.6773 30.2895V24.8912C53.6773 23.6176 52.6417 22.5721 51.3744 22.5721C50.1118 22.5721 49.0762 23.6128 49.0762 24.8912V30.2847C49.0714 31.5583 50.1071 32.599 51.3744 32.599ZM53.2896 17.7583C53.928 17.7583 54.4434 18.281 54.4434 18.9178C54.4434 19.5498 53.928 20.0726 53.2896 20.0726C52.6606 20.0726 52.1405 19.5498 52.1405 18.9178C52.1405 18.281 52.6606 17.7583 53.2896 17.7583Z" fill="#212121"/>
<path d="M60.1935 20.8428V32.4045H65.3716V34.3291H58.2783V20.8428H60.1935Z" fill="#212121"/>
<path d="M69.5898 20.8428V32.4045H74.7632V34.3291H67.6699V20.8428H69.5898Z" fill="#212121"/>
<path d="M40.829 40.8726C43.1272 40.8726 44.4702 42.7971 44.6593 43.1821L42.9759 44.0659C42.8766 43.8759 42.1673 42.7924 40.829 42.7924C39.486 42.7924 38.7199 43.4672 38.7199 44.3368C38.7199 45.2064 39.2969 45.8765 40.6162 46.4943L42.4794 47.4209C43.6852 48.0339 44.8532 49.1507 44.8532 51.08C44.8532 53.0046 43.1461 54.7391 40.829 54.7391C38.5071 54.7391 37.0507 52.8525 36.417 51.4649L38.0106 50.524C38.6443 51.8308 39.486 52.8145 40.829 52.8145C42.172 52.8145 42.9381 51.9496 42.9381 51.08C42.9381 50.2151 42.399 49.5593 41.1884 48.9416L39.3347 48.0197C38.0106 47.4019 36.8 46.2614 36.8 44.3368C36.8048 42.3219 38.526 40.8726 40.829 40.8726Z" fill="#212121"/>
<path d="M54.4431 41.0674V42.992H51.1802V54.5538H49.265V42.992H46.0068V41.0674H54.4431Z" fill="#212121"/>
<path d="M58.6564 54.5538H56.7412V41.0674H58.6564V54.5538Z" fill="#212121"/>
<path d="M68.8236 41.0674V42.992H63.6455V46.8459H67.6697V48.7752H63.6455V54.5538H61.7256V41.0674H68.8236Z" fill="#212121"/>
<path d="M78.6031 41.0674V42.992H75.3402V54.5538H73.4203V42.992H70.1621V41.0674H78.6031Z" fill="#212121"/>
<path d="M89.148 41.0674V50.5097C89.148 52.8383 87.247 54.7486 84.9252 54.7486C82.608 54.7486 80.707 52.843 80.707 50.5097V41.0674H82.6269V50.5097C82.6269 51.7785 83.6578 52.8192 84.9252 52.8192C86.1925 52.8192 87.2281 51.7785 87.2281 50.5097V41.0674H89.148Z" fill="#212121"/>
<path d="M100.077 41.0674V54.5538H98.5446L93.5556 45.6911V54.5538H91.6357V41.0674H93.1726L98.1568 49.93V41.0674H100.077Z" fill="#212121"/>
<path d="M102.564 45.1163C102.564 42.783 104.461 40.8774 106.783 40.8774C109.104 40.8774 111.001 42.783 111.001 45.1163V45.506H109.086V45.1163C109.086 43.8475 108.05 42.802 106.783 42.802C105.515 42.802 104.484 43.8475 104.484 45.1163V50.5099C104.484 51.7787 105.52 52.8194 106.783 52.8194C108.05 52.8194 109.086 51.7787 109.086 50.5099V48.7754H106.593V46.846H111.001V50.5099C111.001 52.8384 109.104 54.7487 106.783 54.7487C104.461 54.7487 102.564 52.8432 102.564 50.5099V45.1163Z" fill="#212121"/>
<path d="M19.5439 14.3085H27.3985V0H19.5439V14.3085Z" fill="#212121"/>
<path d="M9.76953 14.3085H17.6289V0H9.76953V14.3085Z" fill="#212121"/>
<path d="M0 14.3085H7.8546V0H0V14.3085Z" fill="#212121"/>
</g>
<defs>
<clipPath id="cclip0">
<rect width="111" height="69" fill="white"/>
</clipPath>
</defs>
</symbol><symbol viewBox="0 0 31 30" id="inst" xmlns="http://www.w3.org/2000/svg">
<path fill-rule="evenodd" clip-rule="evenodd" d="M15.9943 0C7.71047 0 0.995117 6.71535 0.995117 14.9992C0.995117 23.283 7.71047 29.9983 15.9943 29.9983C24.2781 29.9983 30.9934 23.283 30.9934 14.9992C30.9934 6.71535 24.2781 0 15.9943 0ZM12.6966 7.04799C13.5499 7.00916 13.8226 6.99966 15.9951 6.99966H15.9926C18.1659 6.99966 18.4375 7.00916 19.2908 7.04799C20.1424 7.08699 20.7241 7.22182 21.2341 7.41964C21.7607 7.6238 22.2057 7.89712 22.6507 8.3421C23.0956 8.78675 23.369 9.23306 23.5739 9.7592C23.7706 10.2678 23.9056 10.8492 23.9456 11.7008C23.9839 12.5541 23.9939 12.8267 23.9939 14.9993C23.9939 17.1719 23.9839 17.4438 23.9456 18.2971C23.9056 19.1484 23.7706 19.7299 23.5739 20.2387C23.369 20.7647 23.0956 21.211 22.6507 21.6557C22.2062 22.1006 21.7605 22.3746 21.2346 22.5789C20.7256 22.7768 20.1436 22.9116 19.292 22.9506C18.4387 22.9894 18.1669 22.9989 15.9941 22.9989C13.8217 22.9989 13.5492 22.9894 12.696 22.9506C11.8445 22.9116 11.263 22.7768 10.754 22.5789C10.2282 22.3746 9.78192 22.1006 9.33744 21.6557C8.89263 21.211 8.61931 20.7647 8.41482 20.2386C8.21716 19.7299 8.08233 19.1486 8.04317 18.297C8.0045 17.4437 7.99483 17.1719 7.99483 14.9993C7.99483 12.8267 8.00483 12.5539 8.043 11.7006C8.08133 10.8493 8.21632 10.2678 8.41465 9.75904C8.61964 9.23306 8.89296 8.78675 9.33794 8.3421C9.78259 7.89729 10.2289 7.62397 10.755 7.41964C11.2637 7.22182 11.845 7.08699 12.6966 7.04799Z"/>
<path fill-rule="evenodd" clip-rule="evenodd" d="M15.2774 8.44145C15.4168 8.44123 15.5667 8.4413 15.7284 8.44137L15.995 8.44145C18.1309 8.44145 18.3841 8.44912 19.2276 8.48745C20.0075 8.52312 20.4308 8.65344 20.7128 8.76294C21.0861 8.90793 21.3523 9.08126 21.6321 9.36124C21.9121 9.64123 22.0854 9.90789 22.2308 10.2812C22.3403 10.5629 22.4707 10.9862 22.5062 11.7661C22.5446 12.6094 22.5529 12.8627 22.5529 14.9977C22.5529 17.1326 22.5446 17.3859 22.5062 18.2292C22.4706 19.0091 22.3403 19.4324 22.2308 19.7141C22.0858 20.0874 21.9121 20.3532 21.6321 20.6331C21.3521 20.913 21.0863 21.0864 20.7128 21.2314C20.4312 21.3414 20.0075 21.4714 19.2276 21.507C18.3843 21.5453 18.1309 21.5537 15.995 21.5537C13.859 21.5537 13.6058 21.5453 12.7625 21.507C11.9826 21.471 11.5592 21.3407 11.2771 21.2312C10.9038 21.0862 10.6371 20.9129 10.3571 20.6329C10.0771 20.3529 9.90382 20.0869 9.7585 19.7134C9.649 19.4318 9.51851 19.0085 9.48301 18.2285C9.44468 17.3852 9.43701 17.1319 9.43701 14.9957C9.43701 12.8594 9.44468 12.6074 9.48301 11.7641C9.51867 10.9842 9.649 10.5609 9.7585 10.2789C9.90349 9.90555 10.0771 9.6389 10.3571 9.35891C10.6371 9.07892 10.9038 8.9056 11.2771 8.76027C11.5591 8.65028 11.9826 8.52028 12.7625 8.48445C13.5005 8.45112 13.7865 8.44112 15.2774 8.43945V8.44145ZM20.2655 9.76959C19.7355 9.76959 19.3055 10.1991 19.3055 10.7292C19.3055 11.2592 19.7355 11.6892 20.2655 11.6892C20.7954 11.6892 21.2254 11.2592 21.2254 10.7292C21.2254 10.1992 20.7954 9.76926 20.2655 9.76926V9.76959ZM11.8872 14.9993C11.8872 12.7306 13.7265 10.8913 15.9952 10.8912C18.2639 10.8912 20.1028 12.7306 20.1028 14.9993C20.1028 17.268 18.2641 19.1066 15.9953 19.1066C13.7266 19.1066 11.8872 17.268 11.8872 14.9993Z"/>
<path fill-rule="evenodd" clip-rule="evenodd" d="M15.9947 12.333C17.4673 12.333 18.6612 13.5268 18.6612 14.9996C18.6612 16.4722 17.4673 17.6661 15.9947 17.6661C14.5219 17.6661 13.3281 16.4722 13.3281 14.9996C13.3281 13.5268 14.5219 12.333 15.9947 12.333V12.333Z"/>
</symbol><symbol viewBox="0 0 68 69" fill="none" id="memo_logo" xmlns="http://www.w3.org/2000/svg">
<g clip-path="url(#eclip0)">
<path d="M16.9 24.245C16.9 21.1785 19.7199 18.6899 19.7199 18.6899C19.7199 18.6899 22.4233 21.1785 22.4233 24.245C22.4233 27.3115 19.7199 29.8001 19.7199 29.8001C19.7199 29.8001 16.9 27.3115 16.9 24.245ZM19.7199 6.32568C19.7199 6.32568 12.8799 12.4311 12.8799 19.9637C12.8799 27.4963 19.7199 33.6017 19.7199 33.6017C19.7199 33.6017 26.4473 27.4963 26.4473 19.9637C26.4434 12.4311 19.7199 6.32568 19.7199 6.32568Z" fill="#212121"/>
<path d="M19.7236 38.2763L6.14453 25.4678V68.7957H12.3242V39.8017L19.7236 47.1298L26.9403 39.8017V56.518H33.1744V25.4678L19.7236 38.2763Z" fill="#212121"/>
<path d="M50.3073 58.6055L48.2953 64.6834V58.6055H45.957V68.8232H48.3885L50.3539 62.8121V68.8232H52.7038V58.6055H50.3073Z" fill="#212121"/>
<path d="M56.8296 60.6852L57.5366 64.9783H56.0062L56.8296 60.6852ZM55.5595 58.6055L53.3184 68.8193H55.3109L55.7265 66.7356H57.8473L58.2357 68.8193H60.6089L58.6086 58.6055H55.5595Z" fill="#212121"/>
<path d="M13.8896 58.5933V68.8188H19.7975V66.7313H16.2512V64.6555H18.6322V62.6937H16.2512V60.6455H19.7975V58.5933H13.8896Z" fill="#212121"/>
<path d="M26.4896 58.5859L25.2428 64.5341L24.128 58.5859H20.8809V68.8233H22.6831V61.0273L24.1824 68.8233H25.67L27.2975 61.0273L27.2781 68.8233H29.6125V58.5859H26.4896Z" fill="#212121"/>
<path d="M45.2346 61.6287C45.2346 59.1048 43.3624 58.6055 42.003 58.6055H38.5771V68.8193H40.9387V64.652H42.003C43.3896 64.6559 45.2346 64.074 45.2346 61.6287ZM42.8148 61.6916C42.8225 62.6705 41.9447 62.9615 41.3582 62.9615H40.9348V60.4768H41.3155C41.9991 60.4729 42.8109 60.7088 42.8148 61.6916Z" fill="#212121"/>
<path d="M68.0003 68.7991V58.6011H62.0187V62.3792C62.0187 66.5936 62.1896 67.2187 61.3817 67.2187C61.203 67.2187 61.0243 67.2187 60.8379 67.1362V68.7441C61.2457 68.9289 61.5176 68.9996 62.0187 68.9996C63.18 68.9996 63.9452 68.4728 63.9763 66.173C63.9841 65.5872 63.9724 64.8874 63.9724 64.0461V60.5943H65.6426V68.7991H68.0003Z" fill="#212121"/>
<path d="M37.7537 63.7281C37.7537 65.3675 37.4313 66.653 36.7826 67.5926C36.1379 68.5322 35.2484 69.0001 34.1259 69.0001C32.9956 69.0001 32.11 68.5244 31.4691 67.5769C30.8243 66.6255 30.502 65.3478 30.502 63.732C30.502 62.1083 30.8243 60.8228 31.4691 59.8753C32.11 58.9278 32.9956 58.4561 34.1259 58.4561C35.2484 58.4561 36.1379 58.9278 36.7826 59.8674C37.4313 60.807 37.7537 62.0965 37.7537 63.7281ZM35.2639 63.7123C35.2639 63.0912 35.2329 62.5683 35.1707 62.1358C35.1124 61.6995 35.0309 61.3456 34.9299 61.0665C34.825 60.7834 34.7046 60.5829 34.5725 60.4611C34.4405 60.3353 34.3007 60.2724 34.1608 60.2724C34.0093 60.2724 33.8734 60.3313 33.7491 60.4453C33.6248 60.5594 33.5083 60.7599 33.3918 61.0508C33.2908 61.3181 33.2092 61.6759 33.1471 62.1201C33.081 62.5644 33.05 63.099 33.05 63.7123C33.05 64.3492 33.081 64.876 33.1432 65.2928C33.2014 65.7134 33.283 66.0633 33.3879 66.3464C33.4928 66.6334 33.6093 66.8378 33.7452 66.9597C33.8812 67.0815 34.021 67.1444 34.1608 67.1444C34.3045 67.1444 34.4444 67.0776 34.5842 66.9479C34.7201 66.8181 34.8367 66.6098 34.9338 66.3306C35.0348 66.0319 35.1202 65.678 35.1746 65.277C35.2367 64.8839 35.2639 64.3571 35.2639 63.7123Z" fill="#212121"/>
<path d="M0 0V68.8309H3.09956V3.1176H64.9276V57.2019H68V0H0Z" fill="#212121"/>
<path d="M0 68.8309V0H68V57.1979H64.9276V3.1176H3.09956V68.8309H0Z" fill="#212121"/>
</g>
<defs>
<clipPath id="eclip0">
<rect width="68" height="69" fill="white"/>
</clipPath>
</defs>
</symbol><symbol viewBox="0 0 32 32" fill="none" id="menu" xmlns="http://www.w3.org/2000/svg">
<path d="M4.625 16.5H26.375" stroke="#25282B" stroke-linecap="round" stroke-linejoin="round"/>
<path d="M4.625 9.25H26.375" stroke="#25282B" stroke-linecap="round" stroke-linejoin="round"/>
<path d="M4.625 23.75H26.375" stroke="#25282B" stroke-linecap="round" stroke-linejoin="round"/>
</symbol><symbol viewBox="0 0 32 32" fill="none" id="search" xmlns="http://www.w3.org/2000/svg">
<path d="M14.375 24.375C19.3456 24.375 23.375 20.3456 23.375 15.375C23.375 10.4044 19.3456 6.375 14.375 6.375C9.40444 6.375 5.375 10.4044 5.375 15.375C5.375 20.3456 9.40444 24.375 14.375 24.375Z" stroke="#25282B" stroke-linecap="round" stroke-linejoin="round"/>
<path d="M25.6252 26.625L20.7314 21.7312" stroke="#25282B" stroke-linecap="round" stroke-linejoin="round"/>
</symbol><symbol viewBox="0 0 31 30" id="twit" xmlns="http://www.w3.org/2000/svg">
    <path fill-rule="evenodd" clip-rule="evenodd" d="M15.9923 0C7.70851 0 0.993164 6.71535 0.993164 14.9992C0.993164 23.283 7.70851 29.9983 15.9923 29.9983C24.2761 29.9983 30.9915 23.283 30.9915 14.9992C30.9915 6.71535 24.2761 0 15.9923 0ZM15.5741 12.7104L15.5427 12.1914C15.4482 10.8462 16.2771 9.61756 17.5885 9.14092C18.0711 8.97145 18.8895 8.95026 19.4246 9.09855C19.6344 9.1621 20.0331 9.37394 20.3163 9.5646L20.8304 9.91413L21.397 9.73407C21.7117 9.63874 22.1314 9.47986 22.3202 9.37394C22.4986 9.27861 22.656 9.22565 22.656 9.25743C22.656 9.43749 22.2678 10.0518 21.9425 10.3908C21.5019 10.8674 21.6278 10.9098 22.5196 10.592C23.0546 10.412 23.0651 10.412 22.9602 10.6132C22.8973 10.7191 22.572 11.0898 22.2258 11.4288C21.6383 12.0113 21.6068 12.0749 21.6068 12.5621C21.6068 13.3141 21.2501 14.8817 20.8934 15.7397C20.2324 17.3497 18.816 19.0126 17.3997 19.8494C15.4063 21.0251 12.7519 21.3216 10.5172 20.6332C9.77228 20.4001 8.49231 19.807 8.49231 19.7011C8.49231 19.6693 8.8805 19.6269 9.35262 19.6163C10.3388 19.5952 11.325 19.3198 12.1644 18.8325L12.7309 18.4936L12.0804 18.2712C11.1572 17.9534 10.3283 17.2226 10.1185 16.5341C10.0556 16.3117 10.0765 16.3011 10.6641 16.3011L11.2726 16.2905L10.7585 16.0469C10.15 15.7397 9.59392 15.2207 9.32114 14.6911C9.1218 14.3098 8.87 13.3459 8.94345 13.2718C8.96443 13.24 9.18475 13.3035 9.43655 13.3883C10.1605 13.6531 10.2549 13.5895 9.83523 13.1447C9.04836 12.3397 8.80705 11.1428 9.18475 10.0095L9.36311 9.50104L10.0556 10.1895C11.4719 11.5771 13.1401 12.4032 15.0496 12.6468L15.5741 12.7104Z"/>
</symbol><symbol viewBox="0 0 31 30" id="vk" xmlns="http://www.w3.org/2000/svg">
<path fill-rule="evenodd" clip-rule="evenodd" d="M15.9977 0C7.71388 0 0.998535 6.71535 0.998535 14.9992C0.998535 23.283 7.71388 29.9983 15.9977 29.9983C24.2815 29.9983 30.9968 23.283 30.9968 14.9992C30.9968 6.71535 24.2815 0 15.9977 0ZM17.2189 19.7337C17.071 19.8897 16.7822 19.9212 16.7822 19.9212H15.826C15.826 19.9212 13.7163 20.0456 11.8579 18.1468C9.83115 16.0752 8.04154 11.965 8.04154 11.965C8.04154 11.965 7.93824 11.6954 8.05014 11.5656C8.17613 11.4189 8.51965 11.4097 8.51965 11.4097L10.8054 11.3951C10.8054 11.3951 11.0206 11.4296 11.1747 11.541C11.3023 11.6332 11.3735 11.8045 11.3735 11.8045C11.3735 11.8045 11.7428 12.7216 12.2319 13.5512C13.1874 15.1711 13.6318 15.5252 13.9558 15.3516C14.4284 15.0989 14.2868 13.0619 14.2868 13.0619C14.2868 13.0619 14.2954 12.323 14.0489 11.9934C13.858 11.7384 13.498 11.6639 13.3392 11.6432C13.2101 11.6263 13.4213 11.3329 13.6952 11.2015C14.1068 11.0041 14.833 10.9926 15.6914 11.001C16.3605 11.0079 16.553 11.0487 16.8143 11.1109C17.4209 11.2546 17.402 11.715 17.3611 12.7088C17.3489 13.006 17.3347 13.3509 17.3347 13.7493C17.3347 13.8389 17.332 13.9343 17.3293 14.0325C17.3151 14.5416 17.2989 15.1246 17.6407 15.3417C17.8159 15.4523 18.244 15.3578 19.3152 13.5727C19.8231 12.7262 20.2034 11.7315 20.2034 11.7315C20.2034 11.7315 20.2871 11.5541 20.4163 11.478C20.5485 11.4005 20.7269 11.4243 20.7269 11.4243L23.1324 11.4097C23.1324 11.4097 23.8554 11.3244 23.972 11.6455C24.0949 11.9811 23.702 12.7662 22.7192 14.052C21.7869 15.272 21.3332 15.7212 21.3748 16.1185C21.4053 16.4088 21.7002 16.6714 22.2661 17.1867C23.4476 18.2634 23.7642 18.8299 23.8403 18.9659C23.8466 18.9772 23.8513 18.9856 23.8546 18.991C24.3844 19.8536 23.267 19.9212 23.267 19.9212L21.1299 19.9503C21.1299 19.9503 20.6714 20.0394 20.0672 19.6323C19.7508 19.4193 19.4416 19.0713 19.147 18.7398C18.6972 18.2336 18.2817 17.766 17.9271 17.8764C17.3316 18.0623 17.3496 19.3213 17.3496 19.3213C17.3496 19.3213 17.3543 19.5909 17.2189 19.7337Z"/>
</symbol><symbol viewBox="0 0 31 30" id="yt" xmlns="http://www.w3.org/2000/svg">
<path fill-rule="evenodd" clip-rule="evenodd" d="M15.9957 0C7.71193 0 0.996582 6.71535 0.996582 14.9992C0.996582 23.283 7.71193 29.9983 15.9957 29.9983C24.2795 29.9983 30.9949 23.283 30.9949 14.9992C30.9949 6.71535 24.2795 0 15.9957 0ZM22.2466 9.84231C22.935 10.0312 23.4772 10.5878 23.6612 11.2947C23.9955 12.5757 23.9955 15.2487 23.9955 15.2487C23.9955 15.2487 23.9955 17.9215 23.6612 19.2027C23.4772 19.9095 22.935 20.4661 22.2466 20.6551C20.9991 20.9984 15.996 20.9984 15.996 20.9984C15.996 20.9984 10.9929 20.9984 9.74523 20.6551C9.05682 20.4661 8.51467 19.9095 8.33068 19.2027C7.99642 17.9215 7.99642 15.2487 7.99642 15.2487C7.99642 15.2487 7.99642 12.5757 8.33068 11.2947C8.51467 10.5878 9.05682 10.0312 9.74523 9.84231C10.9929 9.499 15.996 9.499 15.996 9.499C15.996 9.499 20.9991 9.499 22.2466 9.84231Z"/>
<path fill-rule="evenodd" clip-rule="evenodd" d="M14.4961 17.9987V12.999L18.4959 15.499L14.4961 17.9987Z"/>
</symbol></svg>